<mxfile host="app.diagrams.net" modified="2021-04-13T07:31:31.061Z" agent="5.0 (Windows NT 6.1; WOW64) AppleWebKit/537.36 (KHTML, like Gecko) Chrome/75.0.3770.100 Safari/537.36" etag="WYTkvJyNFmzwcczH94yr" version="14.5.10" type="github">
  <diagram id="88cZQdR2keCtdWxlj_KB" name="Page-1">
    <mxGraphModel dx="940" dy="572" grid="1" gridSize="10" guides="1" tooltips="1" connect="1" arrows="1" fold="1" page="1" pageScale="1" pageWidth="827" pageHeight="1169" math="0" shadow="0">
      <root>
        <mxCell id="0" />
        <mxCell id="1" parent="0" />
        <mxCell id="JGl3NprUCeEhAricUQxZ-1" value="hallo world" style="rounded=0;whiteSpace=wrap;html=1;" vertex="1" parent="1">
          <mxGeometry x="160" y="170" width="140" height="60" as="geometry" />
        </mxCell>
      </root>
    </mxGraphModel>
  </diagram>
</mxfile>
